<?xml version="1.0" encoding="UTF-8"?>
<svg width="632pt" height="805pt" version="1.1" viewBox="0 0 632 805" xmlns="http://www.w3.org/2000/svg">
 <path d="m78.16 0h0.92c0.77 7.94 1.66 15.88 2.93 23.76 7.46-3.72 8.33-16.9 16.92-20.67 2.25 6.72 1.49 13.96 3.09 20.8 6.82-2.67 7.3-14.14 12.97-17.72 5.34 3.03 1.33 13.74 6.45 17.62 7.1 1 11.56-8.24 19.03-6.43 2.03 10.71 7.6 22.45 4.4 33.31-8.73 7.97-22.02 6.77-32.84 4.34 15.7 13.12 22.91 33.13 38.18 46.8 44.51 55.12 40.66 130.3 40.92 197-0.16 19.2 15.65 32.88 29.87 43.19 32.37 23.12 67.02 42.81 100.13 64.81 9.54 4.63 24.77 6.37 28-6.86 34.42-61.06 108.08-98.26 177.62-81.68 55.41 13.35 101.9 63.07 105.25 121.03v1.85c-2.3 7.16 0.57 20.24-5.17 24.75-1.34-33.65-18.07-69.9-46.78-89.78-4.05 3.63-4.78 8.47 0.15 11.67 17.49 25.85 30.9 59.42 20.96 90.58-7.49-26.75-18.09-54.24-38.53-74.24-3.7-0.25-2.63 4.38-1.29 6.38 11.64 18.82 16.57 43.23 14.81 64.11-6.41-18.15-12.75-42.93-32.17-53.55-2.62 1.98-7.98 3.81-7.7 7.6 15.24 19.06 26.27 41.94 28.61 66.46-13.27-17.81-24.04-41.65-45.14-53.01-2.34 0.23-7.94 0.82-6.02 4.22 7.97 14.13 14.36 29.46 17.17 45.5-11.51-9.28-16.42-30.49-31.99-37.7-3.93 1.07-9.09 3.07-10.85 6.81 11.28 17.73 22.4 36.36 26.82 57.19 1.06 2.74-2.38 1.39-2.74-0.31-9.78-16.65-20.67-32.99-35.59-45.49-1.8-1.67-4.31-1.16-6.38-0.42 7.35 15.04 17.96 32.77 16.8 48.82-8.89-12.18-14.41-32.35-30.11-40.31-3.13 0.57-6.07 1.94-8.71 3.68 2.61 12.71 5.84 30.54 0.9 40.86-2.98-10.2-3.41-25.33-11.96-35.02-13.65 2.47-9.7 17.22-13.19 26.96-5.59-2.99-2.15-15.41-8.83-17.96-16.11 3.1-5.6 24.57-15.6 34.43-1.91-8.37 1.13-18.54-2.53-26.27-16.65-0.63-11.67 17.77-17.29 26.51-4.24-1.15 2.38-15.23-3.46-17.53-10.45-0.19-4.63 15.14-9.14 19.78-3.68-2.77-1.01-13.43-5.02-15.72-4.28 3.85-2.4 15.85-8.34 18.7-2.52-4.91 0.97-12.48-1.56-18.22-3.71 5.75-1.58 13.82-5.49 19.58-3.31-3.32 3.22-15.2-4.35-13.96-8.77 0.66-5.97 12.49-10.6 17.88-3.12-3.07 4.87-17.01-3.69-13.12-23.65 11.57-48.86 19.31-74.86 23.21 0.75 12.76 15.12 19.17 17.7 30.81-5.01 32.7-9.26 65.62-9.55 98.78 6.83 0.24 9.94-7.42 15.09-10.5-1.27 10.27-7.3 19.42-16.17 24.61 0.88 13.2-2.52 29.39 8.65 39.27 4.6 4.55 7.36 10.48 10.93 15.81-10.43 0.7-17.61-8.88-24.83-15.13-14.48 15.85-34.71 25.92-50.81 40.09-0.54-10.06 7.73-17 13.86-23.7-15.64 2.68-32.83 7.54-46.71 3.05 5.86-9.32 18.48-4.53 26.92-9.18-5.17-1.46-9.18-6.4-14.93-4.45 2.97-7.26 16.53-6.03 24.04-4.1 10.87-0.42 25.56-4.49 27.02-17.33 4.3-35.33 6.91-71.07 6.14-106.59-7.38-14.1-19.34-26.8-31.66-36.42 7.28 19.04 5.58 40.53-8.37 56.23-11.74 26.29-18.16 54.86-26.05 82.41 8.98 0.99 15.7-7.68 23.99-7.44-0.84 12.78-16.47 18.94-27.64 21.17-9.43 19.79 0.08 39.71 17.29 50.66-12.88 4.58-19.69-2.99-26.48-11.76-21.02 8.61-35.38 30.34-59.28 34.49h-2.67c-0.42-2.29-3.1-1.55-3.93 0h-3.72c4.82-10.46 20.24-9.4 26.94-18.19-18.19 6.86-41.87 12.35-58 8.68 12.68-10.27 34.5-5.61 47.17-17.74-8.27 2.32-17.75-0.95-25.14-1.72 9.6-12.48 31.65-1.03 44.08-10.99 5.75-4.57 11.99-9.12 14.83-16.21 12.79-30.61 19.98-63.18 27.57-95.4 6.22-21.4 2.77-44.48-4.71-65.1-14.54-27.36-33.75-52.14-46.6-80.41-3.76-11.37-17.08-13.3-23.86-22.17-25.8-24.33-52.4-50.46-64.18-84.81-13.26-39.69-7.64-83.78 8.67-121.7-3.82-37.67 3.51-76.17 21.94-109.31-14.04 3.69-25.39-11.77-24.35-24.7-1.29-15.19 11.66-28.95 5.62-43.94-13.39-5.25-28.35-4.32-41.95-9.15v-2.7c4.14-11.64 15.93-18.75 26.96-22.43-1.96-22.35 23.7-32.37 29.47-52.46 6.62-10.82 3.44 11.59 9.35 12.33 4.51-8.79 6.66-18.7 12.38-26.88z"/>
</svg>
